<svg width="2625" height="832" xmlns="http://www.w3.org/2000/svg" xmlns:xlink="http://www.w3.org/1999/xlink" xml:space="preserve" overflow="hidden"><g transform="translate(-291 -453)"><text font-family="Open Sans,Open Sans_MSFontService,sans-serif" font-weight="700" font-size="128" transform="matrix(1 0 0 1 478.547 613)">80%</text><text font-family="Open Sans,Open Sans_MSFontService,sans-serif" font-weight="700" font-size="128" transform="matrix(1 0 0 1 1202.63 613)">90</text><text font-family="Open Sans,Open Sans_MSFontService,sans-serif" font-weight="700" font-size="128" transform="matrix(1 0 0 1 1832.19 613)">70$</text><text font-family="Open Sans,Open Sans_MSFontService,sans-serif" font-weight="700" font-size="128" transform="matrix(1 0 0 1 2477.21 613)">51% </text><text font-family="Open Sans,Open Sans_MSFontService,sans-serif" font-weight="400" font-size="55" transform="matrix(1 0 0 1 333.865 907)">80% des brèches de </text><text font-family="Open Sans,Open Sans_MSFontService,sans-serif" font-weight="400" font-size="55" transform="matrix(1 0 0 1 328.158 973)">données sont issues </text><text font-family="Open Sans,Open Sans_MSFontService,sans-serif" font-weight="400" font-size="55" transform="matrix(1 0 0 1 352.175 1039)">d’un vol de mot de </text><text font-family="Open Sans,Open Sans_MSFontService,sans-serif" font-weight="400" font-size="55" transform="matrix(1 0 0 1 515.204 1105)">passe</text><text font-family="Open Sans,Open Sans_MSFontService,sans-serif" font-weight="400" font-size="55" transform="matrix(1 0 0 1 1033.34 907)">Les utilisateurs ont </text><text font-family="Open Sans,Open Sans_MSFontService,sans-serif" font-weight="400" font-size="55" transform="matrix(1 0 0 1 1064.53 973)">en moyennes 90 </text><text font-family="Open Sans,Open Sans_MSFontService,sans-serif" font-weight="400" font-size="55" transform="matrix(1 0 0 1 1057.4 1039)">comptes en ligne</text><text font-family="Open Sans,Open Sans_MSFontService,sans-serif" font-weight="400" font-size="55" transform="matrix(1 0 0 1 1692.33 907)">Le cout moyen d’un </text><text font-family="Open Sans,Open Sans_MSFontService,sans-serif" font-weight="400" font-size="55" transform="matrix(1 0 0 1 1819.58 973)">HelpDesk</text><text font-family="Open Sans,Open Sans_MSFontService,sans-serif" font-weight="400" font-size="55" transform="matrix(1 0 0 1 1692.6 1039)">d’entreprise pour la </text><text font-family="Open Sans,Open Sans_MSFontService,sans-serif" font-weight="400" font-size="55" transform="matrix(1 0 0 1 1786.61 1105)">gestion d’un </text><text font-family="Open Sans,Open Sans_MSFontService,sans-serif" font-weight="400" font-size="55" transform="matrix(1 0 0 1 1679.77 1171)">problème de mot de </text><text font-family="Open Sans,Open Sans_MSFontService,sans-serif" font-weight="400" font-size="55" transform="matrix(1 0 0 1 1728.79 1237)">passe est de 70$</text><text font-family="Open Sans,Open Sans_MSFontService,sans-serif" font-weight="400" font-size="55" transform="matrix(1 0 0 1 2403.02 907)">51% de mots de </text><text font-family="Open Sans,Open Sans_MSFontService,sans-serif" font-weight="400" font-size="55" transform="matrix(1 0 0 1 2348.57 973)">passe sont réutilisés </text><text font-family="Open Sans,Open Sans_MSFontService,sans-serif" font-weight="400" font-size="55" transform="matrix(1 0 0 1 2408.98 1039)">entre différents </text><text font-family="Open Sans,Open Sans_MSFontService,sans-serif" font-weight="400" font-size="55" transform="matrix(1 0 0 1 2506.14 1105)">services</text><path d="M440 750 745.938 750" stroke="#080D30" stroke-width="10.3125" stroke-miterlimit="8" fill="none" fill-rule="evenodd"/><path d="M1123 750 1428.94 750" stroke="#080D30" stroke-width="10.3125" stroke-miterlimit="8" fill="none" fill-rule="evenodd"/><path d="M1789 750 2094.94 750" stroke="#080D30" stroke-width="10.3125" stroke-miterlimit="8" fill="none" fill-rule="evenodd"/><path d="M2455 750 2760.94 750" stroke="#080D30" stroke-width="10.3125" stroke-miterlimit="8" fill="none" fill-rule="evenodd"/></g></svg>