<?xml version="1.0" encoding="utf-8"?>
<!-- Generator: Adobe Illustrator 25.2.3, SVG Export Plug-In . SVG Version: 6.00 Build 0)  -->
<svg version="1.1" xmlns="http://www.w3.org/2000/svg" xmlns:xlink="http://www.w3.org/1999/xlink" x="0px" y="0px"
	 viewBox="0 0 405.35 405.35" style="enable-background:new 0 0 405.35 405.35;" xml:space="preserve">
<g id="Calque_1">
</g>
<g id="Calque_2">
	<g>
		<g>
			<rect x="250.74" y="147.22" transform="matrix(0.9193 -0.3935 0.3935 0.9193 -34.5914 129.2511)" width="94.35" height="3.53"/>
			<polygon points="111.19,221.02 63.5,168.87 63.15,168.87 63.15,233.61 69.24,233.61 69.07,183.68 116.76,235.29 117.03,235.29 
				117.03,170.46 111.11,170.46 			"/>
			<path d="M217.67,180.93c-2.68-3.15-6.18-5.68-10.51-7.6c-4.33-1.91-9.58-2.87-15.77-2.87h-16.25v63.15h19.34
				c4.12,0,8.04-0.72,11.75-2.16c3.71-1.44,7.01-3.52,9.89-6.23c2.88-2.71,5.17-5.98,6.84-9.8c1.68-3.83,2.52-8.13,2.52-12.9
				c0-3.71-0.63-7.45-1.9-11.22C222.32,187.54,220.35,184.08,217.67,180.93z M217.27,212.94c-1.35,3.12-3.22,5.8-5.61,8.04
				c-2.38,2.24-5.15,3.95-8.3,5.12c-3.15,1.18-6.58,1.77-10.29,1.77h-11.92v-51.58h11.48c4.06,0,7.73,0.65,11,1.94
				c3.27,1.3,6.06,3.09,8.39,5.39c2.33,2.3,4.12,5.02,5.39,8.17c1.27,3.15,1.9,6.61,1.9,10.38
				C219.3,206.23,218.62,209.82,217.27,212.94z"/>
			<polygon points="325.16,233.61 298.13,167.72 297.78,167.72 270.67,233.61 276.67,233.61 297.77,181.29 318.36,233.61 			"/>
		</g>
	</g>
</g>
</svg>
